#!OML:ASF F:\VICON\USERDATA\INSTALL\rory3\rory3.ASF
:FULLY-SPECIFIED
:DEGREES
2845
root 2.07717 17.8148 -7.45749 727 -50.3452 -3.98153
lowerback 14.3626 9.18592 9.03667
upperback 2.84246 13.2668 -3.02287
thorax -2.06784 6.6207 -10.0006
lowerneck -18.0779 15.5047 -4.79849
upperneck 45.9875 25.6469 2.76898
head 19.8736 9.3227 7.24395
rclavicle 2.93207e-015 -1.54058e-014
rhumerus -29.5611 -1.19175 -77.2796
rradius 54.7639
rwrist -0.137491
rhand -15.8179 10.2066
rfingers 7.12502
rthumb 10.3758 -19.5174
lclavicle 2.93207e-015 -1.54058e-014
lhumerus -38.4821 13.4171 78.9569
lradius 35.5511
lwrist -6.91153
lhand -25.3331 22.2378
lfingers 7.12502
lthumb 1.18984 52.2142
rfemur 1.07246 -11.3284 27.2676
rtibia 22.496
rfoot -17.0537 -9.181
rtoes -1.31492
lfemur -29.6066 -12.0037 -16.203
ltibia 26.8516
lfoot -4.83049 -6.56417
ltoes -22.467
2846
root 2.18828 17.8211 -7.52017 726.747 -50.5389 -3.86129
lowerback 14.6124 9.17303 8.96482
upperback 2.94428 13.2527 -2.93031
thorax -2.13442 6.60893 -9.9041
lowerneck -18.223 15.4324 -5.05515
upperneck 46.0821 25.5485 2.98779
head 19.8698 9.26676 7.37191
rclavicle -1.17805e-013 3.58806e-014
rhumerus -29.3744 -1.37496 -77.1875
rradius 54.4165
rwrist -0.0757599
rhand -15.6803 9.92488
rfingers 7.12502
rthumb 10.5086 -19.7924
lclavicle -1.17805e-013 3.58806e-014
lhumerus -38.6293 13.1021 79.318
lradius 35.6244
lwrist -6.16193
lhand -26.0554 21.4365
lfingers 7.12502
lthumb 0.492229 51.4157
rfemur 0.620838 -11.15 27.1634
rtibia 22.8497
rfoot -17.2692 -9.23415
rtoes 0.087577
lfemur -29.5038 -12.1693 -16.1945
ltibia 28.0287
lfoot -4.78434 -5.3234
ltoes -21.3057
2847
root 2.29864 17.8369 -7.58341 726.38 -50.6748 -3.5177
lowerback 14.7772 9.16898 8.77164
upperback 3.063 13.2224 -2.89209
thorax -2.15514 6.59398 -9.78111
lowerneck -18.1755 15.3948 -5.15105
upperneck 46.0372 25.4732 3.03401
head 19.8 9.24412 7.3732
rclavicle -7.8023e-014 3.25013e-014
rhumerus -29.2136 -1.65805 -77.0907
rradius 54.0555
rwrist 0.0840014
rhand -15.4754 9.95565
rfingers 7.12502
rthumb 10.7062 -19.7516
lclavicle -7.8023e-014 3.25013e-014
lhumerus -38.7205 12.6373 79.7427
lradius 35.7193
lwrist -5.49118
lhand -26.4043 21.3643
lfingers 7.12502
lthumb 0.155238 51.344
rfemur 0.123741 -10.7837 26.963
rtibia 23.1807
rfoot -17.5429 -9.35498
rtoes 2.2096
lfemur -29.5072 -12.5021 -16.2083
ltibia 29.385
lfoot -4.25128 -4.2465
ltoes -15.1885
2848
root 2.4059 17.8537 -7.64083 726.086 -50.7948 -3.22309
lowerback 14.843 9.16133 8.62446
upperback 3.17187 13.1874 -2.8752
thorax -2.11858 6.5813 -9.68455
lowerneck -18.1271 15.3602 -5.15097
upperneck 45.9982 25.406 3.00886
head 19.7732 9.22229 7.34018
rclavicle -1.49138e-013 3.65764e-014
rhumerus -29.1154 -1.95901 -77.0557
rradius 53.6946
rwrist 0.356246
rhand -15.3368 10.1189
rfingers 7.12502
rthumb 10.8399 -19.5814
lclavicle -1.49138e-013 3.65764e-014
lhumerus -38.7983 12.3122 80.0505
lradius 35.7365
lwrist -5.29761
lhand -24.3916 22.9918
lfingers 7.12502
lthumb 2.09913 52.9612
rfemur -0.415994 -10.3233 26.8328
rtibia 23.5392
rfoot -17.7021 -9.72844
rtoes 3.24678
lfemur -29.5297 -13.0334 -16.1469
ltibia 30.8734
lfoot -4.4011 -3.40128
ltoes -11.3496
2849
root 2.50965 17.8625 -7.69212 725.829 -50.9095 -3.0174
lowerback 14.8502 9.14596 8.50679
upperback 3.31367 13.1424 -2.82416
thorax -2.01933 6.56828 -9.55032
lowerneck -18.3699 15.2643 -5.3366
upperneck 46.1598 25.2817 3.21483
head 19.8622 9.14473 7.47791
rclavicle 1.66482e-014 1.68967e-014
rhumerus -29.0406 -2.16648 -77.0357
rradius 53.3595
rwrist 0.490675
rhand -15.3385 10.1187
rfingers 7.12502
rthumb 10.8383 -19.5816
lclavicle 1.66482e-014 1.68967e-014
lhumerus -38.8626 12.039 80.3341
lradius 35.7958
lwrist -5.2107
lhand -16.08 30.2707
lfingers 7.12502
lthumb 10.123 60.0072
rfemur -0.934298 -10.0591 26.7426
rtibia 23.9229
rfoot -17.5502 -10.2347
rtoes 2.01293
lfemur -29.4519 -13.311 -16.2011
ltibia 32.4395
lfoot -5.04643 -2.93602
ltoes -12.9568
2850
root 2.61324 17.8668 -7.74361 725.555 -50.9344 -2.74998
lowerback 14.8486 9.02435 8.28867
upperback 3.34613 12.9458 -2.82699
thorax -2.07502 6.46609 -9.42309
lowerneck -18.3929 15.3029 -5.27101
upperneck 46.2542 25.2536 3.36304
head 19.9023 9.15259 7.54227
rclavicle -1.17979e-013 4.81059e-014
rhumerus -29.126 -2.21221 -77.2254
rradius 53.0781
rwrist 0.741582
rhand -15.3401 10.1229
rfingers 7.12502
rthumb 10.8367 -19.5775
lclavicle -1.17979e-013 4.81059e-014
lhumerus -39.1861 11.778 80.3475
lradius 35.9873
lwrist -5.04453
lhand -15.9792 29.9874
lfingers 7.12502
lthumb 10.2202 59.7191
rfemur -1.47398 -10.0525 26.5995
rtibia 24.2565
rfoot -17.3572 -10.5938
rtoes 1.03732
lfemur -29.4289 -13.4565 -16.329
ltibia 34.0752
lfoot -5.43939 -2.72081
ltoes -14.2345
2851
root 2.71518 17.8764 -7.79564 725.225 -50.9111 -2.45221
lowerback 14.9444 8.77878 8.00236
upperback 3.2028 12.5852 -2.97048
thorax -2.38595 6.26202 -9.43651
lowerneck -18.0516 15.5296 -4.51816
upperneck 46.3574 25.3111 3.32125
head 20.0294 9.27191 7.43051
rclavicle -2.70099e-014 3.15074e-014
rhumerus -29.3888 -2.19216 -77.8481
rradius 52.7098
rwrist 1.17166
rhand -15.3423 10.262
rfingers 7.12502
rthumb 10.8346 -19.4385
lclavicle -2.70099e-014 3.15074e-014
lhumerus -39.6295 11.4727 79.8585
lradius 35.979
lwrist -4.9646
lhand -15.3649 30.4786
lfingers 7.12502
lthumb 10.8128 60.1802
rfemur -1.95255 -9.95735 26.4165
rtibia 24.587
rfoot -17.3359 -10.8704
rtoes 1.28543
lfemur -29.3878 -13.6908 -16.4229
ltibia 35.7465
lfoot -5.71654 -2.81102
ltoes -15.2073
2852
root 2.81522 17.8984 -7.84035 724.915 -50.9517 -2.17362
lowerback 15.004 8.77123 7.90362
upperback 3.26101 12.5594 -2.98246
thorax -2.37922 6.25109 -9.40008
lowerneck -18.0303 15.4368 -4.68807
upperneck 46.44 25.1211 3.54369
head 19.996 9.20503 7.51291
rclavicle 1.57686e-013 -5.18828e-014
rhumerus -29.55 -2.66636 -77.8248
rradius 52.3762
rwrist 1.4907
rhand -15.3708 10.4766
rfingers 7.12502
rthumb 10.8071 -19.2253
lclavicle 1.57686e-013 -5.18828e-014
lhumerus -39.5751 10.9496 80.0163
lradius 35.774
lwrist -5.14545
lhand -14.9887 30.9106
lfingers 7.12502
lthumb 11.1757 60.5929
rfemur -2.44389 -9.74323 26.2103
rtibia 24.9654
rfoot -17.5982 -11.5186
rtoes -0.309426
lfemur -29.2971 -14.0543 -16.511
ltibia 37.4033
lfoot -6.27009 -2.93519
ltoes -16.3928
2853
root 2.91597 17.9158 -7.88381 724.761 -50.9501 -1.98564
lowerback 14.9364 8.68655 7.81079
upperback 3.29586 12.4268 -2.99757
thorax -2.35032 6.18796 -9.33943
lowerneck -17.9361 15.411 -4.71283
upperneck 46.3642 25.0508 3.53815
head 19.9204 9.18899 7.4755
rclavicle -1.34627e-013 2.8128e-014
rhumerus -29.7846 -2.76911 -77.9587
rradius 52.2096
rwrist 1.56662
rhand -15.4054 10.4288
rfingers 7.12502
rthumb 10.7737 -19.2749
lclavicle -1.34627e-013 2.8128e-014
lhumerus -39.6691 10.7743 79.9747
lradius 35.6576
lwrist -5.43297
lhand -15.1945 30.1644
lfingers 7.12502
lthumb 10.9772 59.8574
rfemur -3.02695 -9.52525 26.1064
rtibia 25.3051
rfoot -17.8133 -12.1875
rtoes -1.47193
lfemur -29.2367 -14.5312 -16.4908
ltibia 39.0457
lfoot -6.71307 -2.9324
ltoes -16.3811
2854
root 3.0183 17.9234 -7.92875 724.521 -50.8692 -1.66623
lowerback 14.889 8.57471 7.6095
upperback 3.30809 12.2438 -3.01887
thorax -2.38848 6.09426 -9.23123
lowerneck -17.9224 15.3858 -4.70761
upperneck 46.423 25.0091 3.54169
head 19.9602 9.16336 7.47629
rclavicle -1.47796e-013 3.25013e-014
rhumerus -30.0789 -2.83299 -78.0889
rradius 52.0542
rwrist 1.5559
rhand -15.3759 10.3818
rfingers 7.12502
rthumb 10.8022 -19.3204
lclavicle -1.47796e-013 3.25013e-014
lhumerus -39.7851 10.6099 79.9029
lradius 35.5119
lwrist -5.73078
lhand -15.0866 28.952
lfingers 7.12502
lthumb 11.0812 58.6395
rfemur -3.59651 -9.52219 25.903
rtibia 25.5616
rfoot -17.5307 -12.1333
rtoes 0.47044
lfemur -29.1467 -15.0317 -16.568
ltibia 40.6653
lfoot -6.90766 -2.84745
ltoes -16.9855
2855
root 3.11565 17.9433 -7.9696 724.304 -50.9042 -1.46667
lowerback 14.8948 8.5029 7.50438
upperback 3.31791 12.132 -3.0291
thorax -2.42402 6.03621 -9.17758
lowerneck -17.7837 15.3907 -4.68692
upperneck 46.4132 24.9756 3.54806
head 19.92 9.16359 7.44903
rclavicle 4.29375e-014 2.29596e-014
rhumerus -30.4337 -3.12378 -78.1743
rradius 51.8675
rwrist 1.79002
rhand -15.2062 10.5954
rfingers 7.12502
rthumb 10.9659 -19.0982
lclavicle 4.29375e-014 2.29596e-014
lhumerus -39.8827 10.4174 79.8286
lradius 35.3404
lwrist -5.80536
lhand -14.7795 29.0657
lfingers 7.12502
lthumb 11.3774 58.737
rfemur -4.0409 -9.55673 25.7056
rtibia 25.7972
rfoot -17.1623 -11.8465
rtoes 2.27152
lfemur -28.9242 -15.4145 -16.6218
ltibia 42.2553
lfoot -7.18395 -2.83457
ltoes -18.6991
2856
root 3.2113 17.971 -8.00278 724.165 -51.0262 -1.40551
lowerback 14.8769 8.45914 7.52917
upperback 3.31954 12.0763 -3.05109
thorax -2.4138 6.00966 -9.20542
lowerneck -17.5353 15.422 -4.47812
upperneck 46.383 24.9433 3.46334
head 19.8984 9.18323 7.34997
rclavicle 9.0944e-014 -4.28381e-014
rhumerus -30.8726 -3.4541 -78.2815
rradius 51.6859
rwrist 1.89391
rhand -14.9807 10.6971
rfingers 7.12502
rthumb 11.1833 -18.9848
lclavicle 9.0944e-014 -4.28381e-014
lhumerus -40.0232 10.2835 79.6816
lradius 35.2019
lwrist -6.03554
lhand -14.521 29.8409
lfingers 7.12502
lthumb 11.6267 59.4984
rfemur -4.40549 -9.48605 25.5506
rtibia 25.9979
rfoot -16.8913 -11.7205
rtoes 2.91951
lfemur -28.5621 -15.7528 -16.582
ltibia 43.7771
lfoot -7.4501 -2.93669
ltoes -18.0586
2857
root 3.31122 17.9889 -8.03823 723.998 -51.075 -1.25648
lowerback 14.8825 8.42915 7.51897
upperback 3.32422 12.033 -3.1045
thorax -2.41045 5.98939 -9.25317
lowerneck -17.5472 15.3379 -4.46565
upperneck 46.4762 24.7655 3.57263
head 19.9494 9.1184 7.37991
rclavicle -3.7943e-014 1.26228e-014
rhumerus -31.3606 -3.71312 -78.3862
rradius 51.6406
rwrist 1.62891
rhand -14.9208 10.4239
rfingers 7.12502
rthumb 11.2412 -19.2549
lclavicle -3.7943e-014 1.26228e-014
lhumerus -40.0422 10.1834 79.4958
lradius 34.9878
lwrist -6.40653
lhand -14.1779 30.0256
lfingers 7.12502
lthumb 11.9576 59.6641
rfemur -4.82102 -9.3821 25.3763
rtibia 26.1491
rfoot -16.5395 -11.6919
rtoes 2.90042
lfemur -28.2214 -16.0738 -16.5463
ltibia 45.202
lfoot -7.69162 -3.29552
ltoes -15.7848
